<svg width="766" height="160" viewBox="0 0 766 160" fill="none" xmlns="http://www.w3.org/2000/svg">
<path fill-rule="evenodd" clip-rule="evenodd" d="M45.5001 37C20.3711 37 6.3232e-05 57.371 6.10352e-05 82.5C5.88383e-05 107.629 20.3711 128 45.5001 128C55.2415 128 64.2679 124.939 71.6697 119.726C72.3672 124.408 76.405 128 81.2816 128C86.649 128 91.0001 123.649 91.0001 118.282V82.5266L91.0001 82.5L91.0001 82.4734V79.4078C91.0001 78.5051 90.877 77.6312 90.6467 76.8018C87.8432 54.3623 68.6992 37 45.5001 37ZM33.1311 55.5534C18.2489 55.5534 6.18453 67.6178 6.18453 82.5C6.18453 97.3822 18.2489 109.447 33.1311 109.447C48.0133 109.447 60.0777 97.3822 60.0777 82.5C60.0777 67.6178 48.0133 55.5534 33.1311 55.5534Z" fill="#B27DDD"/>
<path d="M146.928 58.24C153.243 58.24 158.021 59.5627 161.264 62.208C164.592 64.8533 166.853 68.3947 168.048 72.832C169.328 77.184 169.968 82.048 169.968 87.424V120.192C169.968 122.411 169.243 124.288 167.792 125.824C166.341 127.275 164.507 128 162.288 128C160.069 128 158.235 127.275 156.784 125.824C155.333 124.288 154.608 122.411 154.608 120.192V87.424C154.608 84.608 154.224 82.0907 153.456 79.872C152.773 77.568 151.493 75.7333 149.616 74.368C147.739 73.0027 145.051 72.32 141.552 72.32C138.139 72.32 135.237 73.0027 132.848 74.368C130.544 75.7333 128.752 77.568 127.472 79.872C126.277 82.0907 125.68 84.608 125.68 87.424V120.192C125.68 122.411 124.955 124.288 123.504 125.824C122.053 127.275 120.219 128 118 128C115.781 128 113.947 127.275 112.496 125.824C111.045 124.288 110.32 122.411 110.32 120.192V67.328C110.32 65.1093 111.045 63.2747 112.496 61.824C113.947 60.288 115.781 59.52 118 59.52C120.219 59.52 122.053 60.288 123.504 61.824C124.955 63.2747 125.68 65.1093 125.68 67.328V72.832L123.76 72.448C124.528 70.9973 125.637 69.4613 127.088 67.84C128.539 66.1333 130.245 64.5547 132.208 63.104C134.171 61.6533 136.389 60.5013 138.864 59.648C141.339 58.7093 144.027 58.24 146.928 58.24Z" fill="#B27DDD"/>
<path d="M204.874 120.192C204.874 122.411 204.149 124.288 202.698 125.824C201.247 127.275 199.413 128 197.194 128C194.975 128 193.141 127.275 191.69 125.824C190.239 124.288 189.514 122.411 189.514 120.192V67.328C189.514 65.1093 190.239 63.2747 191.69 61.824C193.141 60.288 194.975 59.52 197.194 59.52C199.413 59.52 201.247 60.288 202.698 61.824C204.149 63.2747 204.874 65.1093 204.874 67.328V120.192ZM197.066 51.2C194.165 51.2 192.117 50.7307 190.922 49.792C189.727 48.8533 189.13 47.1893 189.13 44.8V42.368C189.13 39.8933 189.77 38.2293 191.05 37.376C192.415 36.4373 194.463 35.968 197.194 35.968C200.181 35.968 202.271 36.4373 203.466 37.376C204.661 38.3147 205.258 39.9787 205.258 42.368V44.8C205.258 47.2747 204.618 48.9813 203.338 49.92C202.058 50.7733 199.967 51.2 197.066 51.2Z" fill="#B27DDD"/>
<path d="M260.468 58.24C267.295 58.24 272.329 59.904 275.572 63.232C278.815 66.4747 280.948 70.6987 281.972 75.904L279.796 74.752L280.82 72.704C281.844 70.7413 283.423 68.6507 285.556 66.432C287.689 64.128 290.249 62.208 293.236 60.672C296.308 59.0507 299.721 58.24 303.476 58.24C309.62 58.24 314.271 59.5627 317.428 62.208C320.671 64.8533 322.889 68.3947 324.084 72.832C325.279 77.184 325.876 82.048 325.876 87.424V120.192C325.876 122.411 325.151 124.288 323.7 125.824C322.249 127.275 320.415 128 318.196 128C315.977 128 314.143 127.275 312.692 125.824C311.241 124.288 310.516 122.411 310.516 120.192V87.424C310.516 84.608 310.175 82.0907 309.492 79.872C308.809 77.568 307.572 75.7333 305.78 74.368C303.988 73.0027 301.428 72.32 298.1 72.32C294.857 72.32 292.084 73.0027 289.78 74.368C287.476 75.7333 285.727 77.568 284.532 79.872C283.423 82.0907 282.868 84.608 282.868 87.424V120.192C282.868 122.411 282.143 124.288 280.692 125.824C279.241 127.275 277.407 128 275.188 128C272.969 128 271.135 127.275 269.684 125.824C268.233 124.288 267.508 122.411 267.508 120.192V87.424C267.508 84.608 267.167 82.0907 266.484 79.872C265.801 77.568 264.564 75.7333 262.772 74.368C260.98 73.0027 258.42 72.32 255.092 72.32C251.849 72.32 249.076 73.0027 246.772 74.368C244.468 75.7333 242.719 77.568 241.524 79.872C240.415 82.0907 239.86 84.608 239.86 87.424V120.192C239.86 122.411 239.135 124.288 237.684 125.824C236.233 127.275 234.399 128 232.18 128C229.961 128 228.127 127.275 226.676 125.824C225.225 124.288 224.5 122.411 224.5 120.192V67.328C224.5 65.1093 225.225 63.2747 226.676 61.824C228.127 60.288 229.961 59.52 232.18 59.52C234.399 59.52 236.233 60.288 237.684 61.824C239.135 63.2747 239.86 65.1093 239.86 67.328V72.832L237.94 72.448C238.708 70.9973 239.775 69.4613 241.14 67.84C242.505 66.1333 244.169 64.5547 246.132 63.104C248.095 61.6533 250.271 60.5013 252.66 59.648C255.049 58.7093 257.652 58.24 260.468 58.24Z" fill="#B27DDD"/>
<path d="M377.956 129.28C370.703 129.28 364.388 127.787 359.012 124.8C353.721 121.728 349.625 117.589 346.724 112.384C343.908 107.179 342.5 101.291 342.5 94.72C342.5 87.04 344.036 80.512 347.108 75.136C350.265 69.6747 354.361 65.4933 359.396 62.592C364.431 59.6907 369.764 58.24 375.396 58.24C379.748 58.24 383.844 59.136 387.684 60.928C391.609 62.72 395.065 65.1947 398.052 68.352C401.039 71.424 403.385 75.008 405.092 79.104C406.884 83.2 407.78 87.552 407.78 92.16C407.695 94.208 406.884 95.872 405.348 97.152C403.812 98.432 402.02 99.072 399.972 99.072H351.076L347.236 86.272H394.212L391.396 88.832V85.376C391.225 82.9013 390.329 80.6827 388.708 78.72C387.172 76.7573 385.209 75.2213 382.82 74.112C380.516 72.9173 378.041 72.32 375.396 72.32C372.836 72.32 370.447 72.6613 368.228 73.344C366.009 74.0267 364.089 75.1787 362.468 76.8C360.847 78.4213 359.567 80.5973 358.628 83.328C357.689 86.0587 357.22 89.5147 357.22 93.696C357.22 98.304 358.159 102.229 360.036 105.472C361.999 108.629 364.473 111.061 367.46 112.768C370.532 114.389 373.775 115.2 377.188 115.2C380.345 115.2 382.863 114.944 384.74 114.432C386.617 113.92 388.111 113.323 389.22 112.64C390.415 111.872 391.481 111.232 392.42 110.72C393.956 109.952 395.407 109.568 396.772 109.568C398.649 109.568 400.185 110.208 401.38 111.488C402.66 112.768 403.3 114.261 403.3 115.968C403.3 118.272 402.105 120.363 399.716 122.24C397.497 124.117 394.383 125.781 390.372 127.232C386.361 128.597 382.223 129.28 377.956 129.28Z" fill="#B27DDD"/>
<path d="M424.392 59.52C426.013 59.52 427.507 59.9467 428.872 60.8C430.237 61.568 431.261 62.7627 431.944 64.384L450.76 107.392L447.944 108.672L467.144 64.512C468.595 61.0987 470.856 59.4773 473.928 59.648C476.061 59.648 477.768 60.3307 479.048 61.696C480.413 62.976 481.096 64.5973 481.096 66.56C481.096 67.1573 480.968 67.7973 480.712 68.48C480.541 69.1627 480.328 69.8027 480.072 70.4L456.136 123.136C454.771 126.208 452.595 127.829 449.608 128C447.987 128.256 446.408 127.957 444.872 127.104C443.421 126.251 442.312 124.928 441.544 123.136L417.736 70.4C417.565 69.9733 417.352 69.4187 417.096 68.736C416.925 68.0533 416.84 67.2427 416.84 66.304C416.84 64.768 417.523 63.2747 418.888 61.824C420.253 60.288 422.088 59.52 424.392 59.52ZM528.026 129.28C520.773 129.28 514.458 127.787 509.082 124.8C503.791 121.728 499.695 117.589 496.794 112.384C493.978 107.179 492.57 101.291 492.57 94.72C492.57 87.04 494.106 80.512 497.178 75.136C500.335 69.6747 504.431 65.4933 509.466 62.592C514.501 59.6907 519.834 58.24 525.466 58.24C529.818 58.24 533.914 59.136 537.754 60.928C541.679 62.72 545.135 65.1947 548.122 68.352C551.109 71.424 553.455 75.008 555.162 79.104C556.954 83.2 557.85 87.552 557.85 92.16C557.765 94.208 556.954 95.872 555.418 97.152C553.882 98.432 552.09 99.072 550.042 99.072H501.146L497.306 86.272H544.282L541.466 88.832V85.376C541.295 82.9013 540.399 80.6827 538.778 78.72C537.242 76.7573 535.279 75.2213 532.89 74.112C530.586 72.9173 528.111 72.32 525.466 72.32C522.906 72.32 520.517 72.6613 518.298 73.344C516.079 74.0267 514.159 75.1787 512.538 76.8C510.917 78.4213 509.637 80.5973 508.698 83.328C507.759 86.0587 507.29 89.5147 507.29 93.696C507.29 98.304 508.229 102.229 510.106 105.472C512.069 108.629 514.543 111.061 517.53 112.768C520.602 114.389 523.845 115.2 527.258 115.2C530.415 115.2 532.933 114.944 534.81 114.432C536.687 113.92 538.181 113.323 539.29 112.64C540.485 111.872 541.551 111.232 542.49 110.72C544.026 109.952 545.477 109.568 546.842 109.568C548.719 109.568 550.255 110.208 551.45 111.488C552.73 112.768 553.37 114.261 553.37 115.968C553.37 118.272 552.175 120.363 549.786 122.24C547.567 124.117 544.453 125.781 540.442 127.232C536.431 128.597 532.293 129.28 528.026 129.28ZM582.18 128C579.961 128 578.127 127.275 576.676 125.824C575.225 124.288 574.5 122.411 574.5 120.192V67.328C574.5 65.1093 575.225 63.2747 576.676 61.824C578.127 60.288 579.961 59.52 582.18 59.52C584.399 59.52 586.233 60.288 587.684 61.824C589.135 63.2747 589.86 65.1093 589.86 67.328V79.36L588.964 70.784C589.903 68.736 591.097 66.944 592.548 65.408C594.084 63.7867 595.791 62.464 597.668 61.44C599.545 60.3307 601.551 59.52 603.684 59.008C605.817 58.496 607.951 58.24 610.084 58.24C612.644 58.24 614.777 58.9653 616.484 60.416C618.276 61.8667 619.172 63.5733 619.172 65.536C619.172 68.352 618.447 70.4 616.996 71.68C615.545 72.8747 613.967 73.472 612.26 73.472C610.639 73.472 609.145 73.1733 607.78 72.576C606.5 71.9787 605.007 71.68 603.3 71.68C601.764 71.68 600.185 72.064 598.564 72.832C597.028 73.5147 595.577 74.624 594.212 76.16C592.932 77.696 591.865 79.616 591.012 81.92C590.244 84.1387 589.86 86.784 589.86 89.856V120.192C589.86 122.411 589.135 124.288 587.684 125.824C586.233 127.275 584.399 128 582.18 128ZM629.872 117.376C629.019 116.181 628.635 114.645 628.72 112.768C628.805 110.891 629.915 109.269 632.048 107.904C633.413 107.051 634.864 106.709 636.4 106.88C637.936 106.965 639.429 107.733 640.88 109.184C643.355 111.659 645.957 113.579 648.688 114.944C651.419 116.309 654.832 116.992 658.928 116.992C660.208 116.907 661.616 116.736 663.152 116.48C664.688 116.139 666.011 115.456 667.12 114.432C668.315 113.323 668.912 111.659 668.912 109.44C668.912 107.563 668.272 106.069 666.992 104.96C665.712 103.851 664.005 102.912 661.872 102.144C659.824 101.376 657.52 100.651 654.96 99.968C652.315 99.2 649.584 98.3467 646.768 97.408C644.037 96.4693 641.52 95.2747 639.216 93.824C636.912 92.288 635.035 90.2827 633.584 87.808C632.133 85.3333 631.408 82.2187 631.408 78.464C631.408 74.1973 632.603 70.5707 634.992 67.584C637.381 64.5973 640.453 62.2933 644.208 60.672C648.048 59.0507 652.059 58.24 656.24 58.24C658.885 58.24 661.659 58.5813 664.56 59.264C667.461 59.8613 670.235 60.8853 672.88 62.336C675.525 63.7013 677.744 65.536 679.536 67.84C680.475 69.12 681.029 70.656 681.2 72.448C681.371 74.24 680.56 75.8613 678.768 77.312C677.488 78.336 675.995 78.8053 674.288 78.72C672.581 78.5493 671.173 77.952 670.064 76.928C668.613 75.0507 666.651 73.5573 664.176 72.448C661.787 71.3387 659.013 70.784 655.856 70.784C654.576 70.784 653.168 70.9547 651.632 71.296C650.181 71.552 648.901 72.192 647.792 73.216C646.683 74.1547 646.128 75.6907 646.128 77.824C646.128 79.7867 646.768 81.3653 648.048 82.56C649.328 83.6693 651.035 84.608 653.168 85.376C655.387 86.0587 657.733 86.7413 660.208 87.424C662.768 88.1067 665.371 88.9173 668.016 89.856C670.661 90.7947 673.093 92.032 675.312 93.568C677.531 95.104 679.323 97.1093 680.688 99.584C682.053 101.973 682.736 105.045 682.736 108.8C682.736 113.152 681.456 116.864 678.896 119.936C676.336 123.008 673.136 125.355 669.296 126.976C665.456 128.512 661.531 129.28 657.52 129.28C652.485 129.28 647.451 128.427 642.416 126.72C637.381 124.928 633.2 121.813 629.872 117.376ZM731.046 129.28C723.793 129.28 717.478 127.787 712.102 124.8C706.811 121.728 702.715 117.589 699.814 112.384C696.998 107.179 695.59 101.291 695.59 94.72C695.59 87.04 697.126 80.512 700.198 75.136C703.355 69.6747 707.451 65.4933 712.486 62.592C717.521 59.6907 722.854 58.24 728.486 58.24C732.838 58.24 736.934 59.136 740.774 60.928C744.699 62.72 748.155 65.1947 751.142 68.352C754.129 71.424 756.475 75.008 758.182 79.104C759.974 83.2 760.87 87.552 760.87 92.16C760.785 94.208 759.974 95.872 758.438 97.152C756.902 98.432 755.11 99.072 753.062 99.072H704.166L700.326 86.272H747.302L744.486 88.832V85.376C744.315 82.9013 743.419 80.6827 741.798 78.72C740.262 76.7573 738.299 75.2213 735.91 74.112C733.606 72.9173 731.131 72.32 728.486 72.32C725.926 72.32 723.537 72.6613 721.318 73.344C719.099 74.0267 717.179 75.1787 715.558 76.8C713.937 78.4213 712.657 80.5973 711.718 83.328C710.779 86.0587 710.31 89.5147 710.31 93.696C710.31 98.304 711.249 102.229 713.126 105.472C715.089 108.629 717.563 111.061 720.55 112.768C723.622 114.389 726.865 115.2 730.278 115.2C733.435 115.2 735.953 114.944 737.83 114.432C739.707 113.92 741.201 113.323 742.31 112.64C743.505 111.872 744.571 111.232 745.51 110.72C747.046 109.952 748.497 109.568 749.862 109.568C751.739 109.568 753.275 110.208 754.47 111.488C755.75 112.768 756.39 114.261 756.39 115.968C756.39 118.272 755.195 120.363 752.806 122.24C750.587 124.117 747.473 125.781 743.462 127.232C739.451 128.597 735.313 129.28 731.046 129.28Z" fill="#00C3FF"/>
<ellipse cx="29.0001" cy="82.5" rx="16" ry="15.5" transform="rotate(-180 29.0001 82.5)" fill="#0097C5"/>
</svg>
