<svg width="834" height="160" viewBox="0 0 834 160" fill="none" xmlns="http://www.w3.org/2000/svg">
<path fill-rule="evenodd" clip-rule="evenodd" d="M45.5 37C20.371 37 2.19684e-06 57.371 0 82.5C-2.19684e-06 107.629 20.371 128 45.5 128C55.2414 128 64.2678 124.939 71.6697 119.726C72.3672 124.408 76.4049 128 81.2815 128C86.6489 128 91 123.649 91 118.282V82.5266L91 82.5L91 82.4734V79.4078C91 78.5051 90.8769 77.6312 90.6466 76.8018C87.8431 54.3623 68.6991 37 45.5 37ZM33.1311 55.5534C18.2489 55.5534 6.18447 67.6178 6.18447 82.5C6.18447 97.3822 18.2489 109.447 33.1311 109.447C48.0133 109.447 60.0777 97.3822 60.0777 82.5C60.0777 67.6178 48.0133 55.5534 33.1311 55.5534Z" fill="#7D50A1"/>
<ellipse cx="29" cy="82.5" rx="16" ry="15.5" transform="rotate(-180 29 82.5)" fill="#0097C5"/>
<path d="M150.928 58.24C157.243 58.24 162.021 59.5627 165.264 62.208C168.592 64.8533 170.853 68.3947 172.048 72.832C173.328 77.184 173.968 82.048 173.968 87.424V120.192C173.968 122.411 173.243 124.288 171.792 125.824C170.341 127.275 168.507 128 166.288 128C164.069 128 162.235 127.275 160.784 125.824C159.333 124.288 158.608 122.411 158.608 120.192V87.424C158.608 84.608 158.224 82.0907 157.456 79.872C156.773 77.568 155.493 75.7333 153.616 74.368C151.739 73.0027 149.051 72.32 145.552 72.32C142.139 72.32 139.237 73.0027 136.848 74.368C134.544 75.7333 132.752 77.568 131.472 79.872C130.277 82.0907 129.68 84.608 129.68 87.424V120.192C129.68 122.411 128.955 124.288 127.504 125.824C126.053 127.275 124.219 128 122 128C119.781 128 117.947 127.275 116.496 125.824C115.045 124.288 114.32 122.411 114.32 120.192V67.328C114.32 65.1093 115.045 63.2747 116.496 61.824C117.947 60.288 119.781 59.52 122 59.52C124.219 59.52 126.053 60.288 127.504 61.824C128.955 63.2747 129.68 65.1093 129.68 67.328V72.832L127.76 72.448C128.528 70.9973 129.637 69.4613 131.088 67.84C132.539 66.1333 134.245 64.5547 136.208 63.104C138.171 61.6533 140.389 60.5013 142.864 59.648C145.339 58.7093 148.027 58.24 150.928 58.24ZM212.074 120.192C212.074 122.411 211.349 124.288 209.898 125.824C208.447 127.275 206.613 128 204.394 128C202.175 128 200.341 127.275 198.89 125.824C197.439 124.288 196.714 122.411 196.714 120.192V67.328C196.714 65.1093 197.439 63.2747 198.89 61.824C200.341 60.288 202.175 59.52 204.394 59.52C206.613 59.52 208.447 60.288 209.898 61.824C211.349 63.2747 212.074 65.1093 212.074 67.328V120.192ZM204.266 51.2C201.365 51.2 199.317 50.7307 198.122 49.792C196.927 48.8533 196.33 47.1893 196.33 44.8V42.368C196.33 39.8933 196.97 38.2293 198.25 37.376C199.615 36.4373 201.663 35.968 204.394 35.968C207.381 35.968 209.471 36.4373 210.666 37.376C211.861 38.3147 212.458 39.9787 212.458 42.368V44.8C212.458 47.2747 211.818 48.9813 210.538 49.92C209.258 50.7733 207.167 51.2 204.266 51.2ZM270.868 58.24C277.695 58.24 282.729 59.904 285.972 63.232C289.215 66.4747 291.348 70.6987 292.372 75.904L290.196 74.752L291.22 72.704C292.244 70.7413 293.823 68.6507 295.956 66.432C298.089 64.128 300.649 62.208 303.636 60.672C306.708 59.0507 310.121 58.24 313.876 58.24C320.02 58.24 324.671 59.5627 327.828 62.208C331.071 64.8533 333.289 68.3947 334.484 72.832C335.679 77.184 336.276 82.048 336.276 87.424V120.192C336.276 122.411 335.551 124.288 334.1 125.824C332.649 127.275 330.815 128 328.596 128C326.377 128 324.543 127.275 323.092 125.824C321.641 124.288 320.916 122.411 320.916 120.192V87.424C320.916 84.608 320.575 82.0907 319.892 79.872C319.209 77.568 317.972 75.7333 316.18 74.368C314.388 73.0027 311.828 72.32 308.5 72.32C305.257 72.32 302.484 73.0027 300.18 74.368C297.876 75.7333 296.127 77.568 294.932 79.872C293.823 82.0907 293.268 84.608 293.268 87.424V120.192C293.268 122.411 292.543 124.288 291.092 125.824C289.641 127.275 287.807 128 285.588 128C283.369 128 281.535 127.275 280.084 125.824C278.633 124.288 277.908 122.411 277.908 120.192V87.424C277.908 84.608 277.567 82.0907 276.884 79.872C276.201 77.568 274.964 75.7333 273.172 74.368C271.38 73.0027 268.82 72.32 265.492 72.32C262.249 72.32 259.476 73.0027 257.172 74.368C254.868 75.7333 253.119 77.568 251.924 79.872C250.815 82.0907 250.26 84.608 250.26 87.424V120.192C250.26 122.411 249.535 124.288 248.084 125.824C246.633 127.275 244.799 128 242.58 128C240.361 128 238.527 127.275 237.076 125.824C235.625 124.288 234.9 122.411 234.9 120.192V67.328C234.9 65.1093 235.625 63.2747 237.076 61.824C238.527 60.288 240.361 59.52 242.58 59.52C244.799 59.52 246.633 60.288 248.084 61.824C249.535 63.2747 250.26 65.1093 250.26 67.328V72.832L248.34 72.448C249.108 70.9973 250.175 69.4613 251.54 67.84C252.905 66.1333 254.569 64.5547 256.532 63.104C258.495 61.6533 260.671 60.5013 263.06 59.648C265.449 58.7093 268.052 58.24 270.868 58.24ZM391.556 129.28C384.303 129.28 377.988 127.787 372.612 124.8C367.321 121.728 363.225 117.589 360.324 112.384C357.508 107.179 356.1 101.291 356.1 94.72C356.1 87.04 357.636 80.512 360.708 75.136C363.865 69.6747 367.961 65.4933 372.996 62.592C378.031 59.6907 383.364 58.24 388.996 58.24C393.348 58.24 397.444 59.136 401.284 60.928C405.209 62.72 408.665 65.1947 411.652 68.352C414.639 71.424 416.985 75.008 418.692 79.104C420.484 83.2 421.38 87.552 421.38 92.16C421.295 94.208 420.484 95.872 418.948 97.152C417.412 98.432 415.62 99.072 413.572 99.072H364.676L360.836 86.272H407.812L404.996 88.832V85.376C404.825 82.9013 403.929 80.6827 402.308 78.72C400.772 76.7573 398.809 75.2213 396.42 74.112C394.116 72.9173 391.641 72.32 388.996 72.32C386.436 72.32 384.047 72.6613 381.828 73.344C379.609 74.0267 377.689 75.1787 376.068 76.8C374.447 78.4213 373.167 80.5973 372.228 83.328C371.289 86.0587 370.82 89.5147 370.82 93.696C370.82 98.304 371.759 102.229 373.636 105.472C375.599 108.629 378.073 111.061 381.06 112.768C384.132 114.389 387.375 115.2 390.788 115.2C393.945 115.2 396.463 114.944 398.34 114.432C400.217 113.92 401.711 113.323 402.82 112.64C404.015 111.872 405.081 111.232 406.02 110.72C407.556 109.952 409.007 109.568 410.372 109.568C412.249 109.568 413.785 110.208 414.98 111.488C416.26 112.768 416.9 114.261 416.9 115.968C416.9 118.272 415.705 120.363 413.316 122.24C411.097 124.117 407.983 125.781 403.972 127.232C399.961 128.597 395.823 129.28 391.556 129.28Z" fill="#7D50A1"/>
<path d="M443.392 59.52C445.013 59.52 446.507 59.9467 447.872 60.8C449.237 61.568 450.261 62.7627 450.944 64.384L469.76 107.392L466.944 108.672L486.144 64.512C487.595 61.0987 489.856 59.4773 492.928 59.648C495.061 59.648 496.768 60.3307 498.048 61.696C499.413 62.976 500.096 64.5973 500.096 66.56C500.096 67.1573 499.968 67.7973 499.712 68.48C499.541 69.1627 499.328 69.8027 499.072 70.4L475.136 123.136C473.771 126.208 471.595 127.829 468.608 128C466.987 128.256 465.408 127.957 463.872 127.104C462.421 126.251 461.312 124.928 460.544 123.136L436.736 70.4C436.565 69.9733 436.352 69.4187 436.096 68.736C435.925 68.0533 435.84 67.2427 435.84 66.304C435.84 64.768 436.523 63.2747 437.888 61.824C439.253 60.288 441.088 59.52 443.392 59.52ZM550.226 129.28C542.973 129.28 536.658 127.787 531.282 124.8C525.991 121.728 521.895 117.589 518.994 112.384C516.178 107.179 514.77 101.291 514.77 94.72C514.77 87.04 516.306 80.512 519.378 75.136C522.535 69.6747 526.631 65.4933 531.666 62.592C536.701 59.6907 542.034 58.24 547.666 58.24C552.018 58.24 556.114 59.136 559.954 60.928C563.879 62.72 567.335 65.1947 570.322 68.352C573.309 71.424 575.655 75.008 577.362 79.104C579.154 83.2 580.05 87.552 580.05 92.16C579.965 94.208 579.154 95.872 577.618 97.152C576.082 98.432 574.29 99.072 572.242 99.072H523.346L519.506 86.272H566.482L563.666 88.832V85.376C563.495 82.9013 562.599 80.6827 560.978 78.72C559.442 76.7573 557.479 75.2213 555.09 74.112C552.786 72.9173 550.311 72.32 547.666 72.32C545.106 72.32 542.717 72.6613 540.498 73.344C538.279 74.0267 536.359 75.1787 534.738 76.8C533.117 78.4213 531.837 80.5973 530.898 83.328C529.959 86.0587 529.49 89.5147 529.49 93.696C529.49 98.304 530.429 102.229 532.306 105.472C534.269 108.629 536.743 111.061 539.73 112.768C542.802 114.389 546.045 115.2 549.458 115.2C552.615 115.2 555.133 114.944 557.01 114.432C558.887 113.92 560.381 113.323 561.49 112.64C562.685 111.872 563.751 111.232 564.69 110.72C566.226 109.952 567.677 109.568 569.042 109.568C570.919 109.568 572.455 110.208 573.65 111.488C574.93 112.768 575.57 114.261 575.57 115.968C575.57 118.272 574.375 120.363 571.986 122.24C569.767 124.117 566.653 125.781 562.642 127.232C558.631 128.597 554.493 129.28 550.226 129.28ZM607.58 128C605.361 128 603.527 127.275 602.076 125.824C600.625 124.288 599.9 122.411 599.9 120.192V67.328C599.9 65.1093 600.625 63.2747 602.076 61.824C603.527 60.288 605.361 59.52 607.58 59.52C609.799 59.52 611.633 60.288 613.084 61.824C614.535 63.2747 615.26 65.1093 615.26 67.328V79.36L614.364 70.784C615.303 68.736 616.497 66.944 617.948 65.408C619.484 63.7867 621.191 62.464 623.068 61.44C624.945 60.3307 626.951 59.52 629.084 59.008C631.217 58.496 633.351 58.24 635.484 58.24C638.044 58.24 640.177 58.9653 641.884 60.416C643.676 61.8667 644.572 63.5733 644.572 65.536C644.572 68.352 643.847 70.4 642.396 71.68C640.945 72.8747 639.367 73.472 637.66 73.472C636.039 73.472 634.545 73.1733 633.18 72.576C631.9 71.9787 630.407 71.68 628.7 71.68C627.164 71.68 625.585 72.064 623.964 72.832C622.428 73.5147 620.977 74.624 619.612 76.16C618.332 77.696 617.265 79.616 616.412 81.92C615.644 84.1387 615.26 86.784 615.26 89.856V120.192C615.26 122.411 614.535 124.288 613.084 125.824C611.633 127.275 609.799 128 607.58 128ZM658.472 117.376C657.619 116.181 657.235 114.645 657.32 112.768C657.405 110.891 658.515 109.269 660.648 107.904C662.013 107.051 663.464 106.709 665 106.88C666.536 106.965 668.029 107.733 669.48 109.184C671.955 111.659 674.557 113.579 677.288 114.944C680.019 116.309 683.432 116.992 687.528 116.992C688.808 116.907 690.216 116.736 691.752 116.48C693.288 116.139 694.611 115.456 695.72 114.432C696.915 113.323 697.512 111.659 697.512 109.44C697.512 107.563 696.872 106.069 695.592 104.96C694.312 103.851 692.605 102.912 690.472 102.144C688.424 101.376 686.12 100.651 683.56 99.968C680.915 99.2 678.184 98.3467 675.368 97.408C672.637 96.4693 670.12 95.2747 667.816 93.824C665.512 92.288 663.635 90.2827 662.184 87.808C660.733 85.3333 660.008 82.2187 660.008 78.464C660.008 74.1973 661.203 70.5707 663.592 67.584C665.981 64.5973 669.053 62.2933 672.808 60.672C676.648 59.0507 680.659 58.24 684.84 58.24C687.485 58.24 690.259 58.5813 693.16 59.264C696.061 59.8613 698.835 60.8853 701.48 62.336C704.125 63.7013 706.344 65.536 708.136 67.84C709.075 69.12 709.629 70.656 709.8 72.448C709.971 74.24 709.16 75.8613 707.368 77.312C706.088 78.336 704.595 78.8053 702.888 78.72C701.181 78.5493 699.773 77.952 698.664 76.928C697.213 75.0507 695.251 73.5573 692.776 72.448C690.387 71.3387 687.613 70.784 684.456 70.784C683.176 70.784 681.768 70.9547 680.232 71.296C678.781 71.552 677.501 72.192 676.392 73.216C675.283 74.1547 674.728 75.6907 674.728 77.824C674.728 79.7867 675.368 81.3653 676.648 82.56C677.928 83.6693 679.635 84.608 681.768 85.376C683.987 86.0587 686.333 86.7413 688.808 87.424C691.368 88.1067 693.971 88.9173 696.616 89.856C699.261 90.7947 701.693 92.032 703.912 93.568C706.131 95.104 707.923 97.1093 709.288 99.584C710.653 101.973 711.336 105.045 711.336 108.8C711.336 113.152 710.056 116.864 707.496 119.936C704.936 123.008 701.736 125.355 697.896 126.976C694.056 128.512 690.131 129.28 686.12 129.28C681.085 129.28 676.051 128.427 671.016 126.72C665.981 124.928 661.8 121.813 658.472 117.376ZM762.846 129.28C755.593 129.28 749.278 127.787 743.902 124.8C738.611 121.728 734.515 117.589 731.614 112.384C728.798 107.179 727.39 101.291 727.39 94.72C727.39 87.04 728.926 80.512 731.998 75.136C735.155 69.6747 739.251 65.4933 744.286 62.592C749.321 59.6907 754.654 58.24 760.286 58.24C764.638 58.24 768.734 59.136 772.574 60.928C776.499 62.72 779.955 65.1947 782.942 68.352C785.929 71.424 788.275 75.008 789.982 79.104C791.774 83.2 792.67 87.552 792.67 92.16C792.585 94.208 791.774 95.872 790.238 97.152C788.702 98.432 786.91 99.072 784.862 99.072H735.966L732.126 86.272H779.102L776.286 88.832V85.376C776.115 82.9013 775.219 80.6827 773.598 78.72C772.062 76.7573 770.099 75.2213 767.71 74.112C765.406 72.9173 762.931 72.32 760.286 72.32C757.726 72.32 755.337 72.6613 753.118 73.344C750.899 74.0267 748.979 75.1787 747.358 76.8C745.737 78.4213 744.457 80.5973 743.518 83.328C742.579 86.0587 742.11 89.5147 742.11 93.696C742.11 98.304 743.049 102.229 744.926 105.472C746.889 108.629 749.363 111.061 752.35 112.768C755.422 114.389 758.665 115.2 762.078 115.2C765.235 115.2 767.753 114.944 769.63 114.432C771.507 113.92 773.001 113.323 774.11 112.64C775.305 111.872 776.371 111.232 777.31 110.72C778.846 109.952 780.297 109.568 781.662 109.568C783.539 109.568 785.075 110.208 786.27 111.488C787.55 112.768 788.19 114.261 788.19 115.968C788.19 118.272 786.995 120.363 784.606 122.24C782.387 124.117 779.273 125.781 775.262 127.232C771.251 128.597 767.113 129.28 762.846 129.28Z" fill="#0097C5"/>
<ellipse cx="816" cy="110.5" rx="18" ry="17.5" transform="rotate(-180 816 110.5)" fill="#0097C5"/>
</svg>
